<svg width="5997" height="1292" viewBox="0 0 5997 1292" fill="none" xmlns="http://www.w3.org/2000/svg">
<path d="M1661.63 533.667H1594.36C1559.96 533.667 1531.7 545.34 1509.58 568.685C1487.46 591.416 1476.41 620.598 1476.41 656.23L1476.41 929H1399.92L1399.92 647.936C1399.92 589.573 1417.12 543.804 1451.52 510.629C1485.93 476.84 1532.93 459.946 1592.52 459.946H1661.63V533.667ZM1866.35 940.98C1805.53 940.98 1757.91 923.778 1723.51 889.375C1689.11 854.971 1671.9 807.666 1671.9 747.46V642.407C1671.9 581.586 1689.11 534.282 1723.51 500.493C1757.91 466.089 1805.53 448.887 1866.35 448.887L1894.91 448.887C1955.73 448.887 2003.04 466.089 2036.83 500.493C2071.23 534.282 2088.43 581.586 2088.43 642.407V730.873H1748.39V748.382C1748.39 785.857 1758.83 815.346 1779.72 836.848C1800.61 857.736 1829.48 868.18 1866.35 868.18H1894.91C1923.17 868.18 1946.83 861.729 1965.87 848.828C1984.91 835.926 1998.12 818.725 2005.5 797.222H2084.75C2076.15 842.684 2055.26 878.009 2022.08 903.197C1988.91 928.386 1946.52 940.98 1894.91 940.98H1866.35ZM2012.87 662.68V639.642C2012.87 602.167 2002.42 572.678 1981.54 551.176C1960.65 529.674 1931.77 518.923 1894.91 518.923L1866.35 518.923C1829.48 518.923 1800.61 529.674 1779.72 551.176C1758.83 572.678 1748.39 602.167 1748.39 639.642V662.68H2012.87ZM2305.37 940.98C2252.54 940.98 2211.07 927.464 2180.97 900.433C2151.48 872.787 2136.73 836.848 2136.73 792.615C2136.73 747.767 2151.48 711.828 2180.97 684.797C2211.07 657.151 2252.54 643.328 2305.37 643.328L2467.56 643.328V617.526C2467.56 588.651 2458.04 564.999 2438.99 546.569C2420.56 528.138 2394.45 518.923 2360.66 518.923H2339.47C2309.36 518.923 2284.79 525.988 2265.75 540.118C2246.7 554.248 2234.72 572.986 2229.81 596.331H2152.4C2160.39 548.412 2180.97 511.858 2214.14 486.67C2247.32 461.482 2290.01 448.887 2342.23 448.887H2355.13C2417.18 448.887 2463.87 465.168 2495.2 497.728C2526.54 529.674 2542.2 574.829 2542.2 633.192V802.752C2542.2 824.254 2545.58 839.612 2552.34 848.828C2559.1 857.429 2570.16 861.729 2585.51 861.729H2608.55V929H2569.85C2547.73 929 2529.61 924.392 2515.48 915.177C2501.96 905.348 2492.13 892.139 2485.99 875.552C2473.09 897.054 2455.27 913.334 2432.54 924.392C2410.42 935.451 2385.24 940.98 2356.98 940.98H2305.37ZM2348.68 872.787C2383.7 872.787 2412.27 862.958 2434.38 843.299C2456.5 823.639 2467.56 795.994 2467.56 760.362V709.678L2316.43 709.678C2283.87 709.678 2258.68 717.357 2240.86 732.716C2223.05 747.46 2214.14 766.812 2214.14 790.772C2214.14 814.731 2223.05 834.39 2240.86 849.749C2258.68 865.108 2283.87 872.787 2316.43 872.787H2348.68ZM2814.9 940.98C2754.08 940.98 2706.47 923.778 2672.06 889.375C2637.66 854.971 2620.46 807.666 2620.46 747.46V642.407C2620.46 582.201 2637.05 534.896 2670.22 500.493C2703.4 466.089 2747.94 448.887 2803.84 448.887H2846.23C2897.22 448.887 2936.54 464.553 2964.19 495.885L2963.27 470.082V276.563H3039.75V747.46C3039.75 808.281 3022.86 855.893 2989.07 890.296C2955.89 924.085 2908.28 940.98 2846.23 940.98H2814.9ZM2845.31 866.337C2882.79 866.337 2911.66 855.893 2931.93 835.005C2952.82 813.503 2963.27 783.707 2963.27 745.617V643.328C2963.27 605.853 2952.82 576.365 2931.93 554.862C2911.05 533.36 2882.17 522.609 2845.31 522.609H2815.82C2778.96 522.609 2750.09 533.36 2729.2 554.862C2708.31 576.365 2697.87 605.853 2697.87 643.328V745.617C2697.87 783.092 2708.31 812.581 2729.2 834.083C2750.09 855.585 2778.96 866.337 2815.82 866.337H2845.31ZM3097.69 1047.88L3143.77 1047.88C3171.41 1047.88 3194.14 1039.58 3211.96 1023C3229.78 1007.02 3246.36 982.141 3261.72 948.352L3275.55 919.785L3066.36 459.946H3151.14L3256.19 694.934L3315.17 831.319L3371.38 694.934L3469.99 459.946H3554.77L3352.03 929C3325.62 995.35 3296.74 1043.58 3265.41 1073.68C3234.69 1104.4 3194.76 1119.75 3145.61 1119.75H3097.69V1047.88Z" fill="#092903"/>
<path d="M3729.38 940.98C3674.09 940.98 3631.39 927.771 3601.29 901.354C3571.8 874.937 3556.75 839.612 3556.13 795.379H3632.62C3633.24 819.339 3641.22 838.077 3656.58 851.592C3672.55 864.494 3698.36 870.944 3733.99 870.944H3774.54C3842.11 870.944 3875.9 849.442 3875.9 806.438C3875.9 783.092 3868.53 766.198 3853.79 755.754C3839.04 745.31 3816 737.631 3784.67 732.716L3706.34 717.05C3659.65 708.449 3624.02 694.626 3599.45 675.582C3575.49 655.923 3563.51 623.976 3563.51 579.743C3563.51 538.582 3578.25 506.636 3607.74 483.905C3637.84 460.56 3680.23 448.887 3734.91 448.887H3776.38C3830.44 448.887 3872.22 462.096 3901.71 488.513C3931.19 514.315 3945.94 548.105 3945.94 589.88H3868.53C3868.53 541.961 3836.28 518.002 3771.77 518.002H3739.52C3673.78 518.002 3640.91 539.197 3640.91 581.587C3640.91 603.089 3647.67 619.062 3661.19 629.506C3675.32 639.335 3696.82 646.707 3725.69 651.622L3806.79 667.288C3853.48 675.274 3889.42 689.404 3914.61 709.678C3940.41 729.337 3953.31 761.59 3953.31 806.438C3953.31 848.828 3938.26 882.002 3908.16 905.962C3878.05 929.307 3834.74 940.98 3778.22 940.98H3729.38ZM4158.38 940.98C4105.55 940.98 4064.08 927.464 4033.98 900.433C4004.49 872.787 3989.75 836.848 3989.75 792.615C3989.75 747.767 4004.49 711.828 4033.98 684.797C4064.08 657.151 4105.55 643.328 4158.38 643.328H4320.57V617.526C4320.57 588.651 4311.05 564.999 4292.01 546.569C4273.57 528.138 4247.47 518.923 4213.68 518.923H4192.48C4162.38 518.923 4137.8 525.988 4118.76 540.118C4099.71 554.248 4087.73 572.986 4082.82 596.331H4005.41C4013.4 548.412 4033.98 511.858 4067.15 486.67C4100.33 461.482 4143.03 448.887 4195.25 448.887H4208.15C4270.2 448.887 4316.89 465.168 4348.22 497.728C4379.55 529.674 4395.22 574.829 4395.22 633.192V802.752C4395.22 824.254 4398.59 839.612 4405.35 848.828C4412.11 857.429 4423.17 861.729 4438.53 861.729H4461.57V929H4422.86C4400.74 929 4382.62 924.392 4368.49 915.177C4354.98 905.348 4345.15 892.139 4339 875.552C4326.1 897.054 4308.29 913.334 4285.55 924.392C4263.44 935.451 4238.25 940.98 4209.99 940.98H4158.38ZM4201.7 872.787C4236.71 872.787 4265.28 862.958 4287.4 843.299C4309.51 823.639 4320.57 795.994 4320.57 760.362V709.678H4169.44C4136.88 709.678 4111.69 717.357 4093.88 732.716C4076.06 747.46 4067.15 766.812 4067.15 790.772C4067.15 814.731 4076.06 834.39 4093.88 849.749C4111.69 865.108 4136.88 872.787 4169.44 872.787H4201.7ZM4416.97 459.946H4499.9L4606.8 726.265L4648.27 834.083L4688.81 726.265L4795.71 459.946H4878.65L4687.89 929H4608.64L4416.97 459.946ZM5075.15 940.98C5014.33 940.98 4966.71 923.778 4932.31 889.375C4897.91 854.971 4880.71 807.666 4880.71 747.46V642.407C4880.71 581.586 4897.91 534.282 4932.31 500.493C4966.71 466.089 5014.33 448.887 5075.15 448.887L5103.71 448.887C5164.53 448.887 5211.84 466.089 5245.63 500.493C5280.03 534.282 5297.23 581.586 5297.23 642.407V730.873L4957.19 730.873V748.382C4957.19 785.857 4967.64 815.346 4988.52 836.848C5009.41 857.736 5038.29 868.18 5075.15 868.18H5103.71C5131.97 868.18 5155.63 861.729 5174.67 848.828C5193.72 835.926 5206.92 818.725 5214.3 797.222L5293.55 797.222C5284.95 842.684 5264.06 878.009 5230.88 903.197C5197.71 928.386 5155.32 940.98 5103.71 940.98H5075.15ZM5221.67 662.68V639.642C5221.67 602.167 5211.23 572.678 5190.34 551.176C5169.45 529.674 5140.58 518.923 5103.71 518.923L5075.15 518.923C5038.29 518.923 5009.41 529.674 4988.52 551.176C4967.64 572.678 4957.19 602.167 4957.19 639.642V662.68H5221.67ZM5626.4 533.667H5559.13C5524.73 533.667 5496.47 545.34 5474.35 568.685C5452.24 591.416 5441.18 620.598 5441.18 656.23V929H5364.69V647.936C5364.69 589.573 5381.89 543.804 5416.3 510.629C5450.7 476.84 5497.7 459.946 5557.29 459.946H5626.4V533.667Z" fill="#32CE13"/>
<path opacity="0.2" d="M1115.5 564.5V695.5C1115.5 712.872 1108.6 729.532 1096.32 741.815C1084.03 754.099 1067.37 761 1050 761H1017.25L943.153 968.512C940.88 974.878 936.694 980.384 931.167 984.276C925.641 988.168 919.046 990.255 912.286 990.25H860.214C853.455 990.255 846.859 988.168 841.333 984.276C835.807 980.384 831.62 974.878 829.347 968.512L813.75 924.75H533.001L517.403 968.512C515.131 974.878 510.944 980.384 505.417 984.276C499.891 988.168 493.296 990.255 486.536 990.25H434.464C427.705 990.255 421.109 988.168 415.583 984.276C410.057 980.384 405.87 974.878 403.597 968.512L349.969 818.312C294.595 758.019 263.909 679.113 264 597.25C264 510.392 298.505 427.091 359.923 365.673C421.341 304.254 504.642 269.75 591.5 269.75H722.5C786.408 269.732 848.924 288.411 902.345 323.487C955.766 358.563 997.758 408.502 1023.15 467.151C1027.64 477.56 1031.6 488.19 1035.02 499H1050C1067.37 499 1084.03 505.901 1096.32 518.185C1108.6 530.468 1115.5 547.128 1115.5 564.5Z" fill="#2AB410"/>
<path d="M919 580.875C919 590.591 916.119 600.089 910.721 608.167C905.323 616.246 897.651 622.542 888.674 626.261C879.698 629.979 869.821 630.952 860.291 629.056C850.762 627.161 842.009 622.482 835.138 615.612C828.268 608.741 823.589 599.988 821.694 590.459C819.798 580.93 820.771 571.052 824.489 562.076C828.208 553.099 834.504 545.427 842.583 540.029C850.661 534.631 860.159 531.75 869.875 531.75C882.904 531.75 895.399 536.926 904.612 546.138C913.824 555.351 919 567.846 919 580.875ZM755.25 368H591.5C582.814 368 574.484 371.45 568.342 377.592C562.2 383.734 558.75 392.064 558.75 400.75C558.75 409.436 562.2 417.766 568.342 423.908C574.484 430.05 582.814 433.5 591.5 433.5H755.25C763.936 433.5 772.266 430.05 778.408 423.908C784.55 417.766 788 409.436 788 400.75C788 392.064 784.55 383.734 778.408 377.592C772.266 371.45 763.936 368 755.25 368ZM1148.25 564.5V695.5C1148.25 721.558 1137.9 746.548 1119.47 764.973C1101.05 783.399 1076.06 793.75 1050 793.75H1040.34L973.979 979.524C969.436 992.249 961.068 1003.26 950.024 1011.04C938.979 1018.82 925.798 1023 912.286 1023H860.214C846.702 1023 833.521 1018.82 822.476 1011.04C811.432 1003.26 803.064 992.249 798.521 979.524L790.661 957.5H556.089L548.229 979.524C543.686 992.249 535.318 1003.26 524.274 1011.04C513.229 1018.82 500.048 1023 486.536 1023H434.464C420.952 1023 407.771 1018.82 396.726 1011.04C385.682 1003.26 377.314 992.249 372.771 979.524L321.312 835.588C272.359 780.183 241.706 711.014 233.542 637.532C222.973 643.084 214.122 651.418 207.946 661.635C201.77 671.851 198.504 683.562 198.5 695.5C198.5 704.186 195.05 712.516 188.908 718.658C182.766 724.8 174.436 728.25 165.75 728.25C157.064 728.25 148.734 724.8 142.592 718.658C136.45 712.516 133 704.186 133 695.5C133.05 666.294 142.859 637.942 160.868 614.949C178.876 591.955 204.053 575.64 232.396 568.594C239.713 478.34 280.703 394.138 347.229 332.709C413.755 271.279 500.95 237.115 591.5 237H1017.25C1025.94 237 1034.27 240.45 1040.41 246.592C1046.55 252.734 1050 261.064 1050 269.75C1050 278.436 1046.55 286.766 1040.41 292.908C1034.27 299.05 1025.94 302.5 1017.25 302.5H929.685C984.035 340.633 1026.78 393.055 1053.19 453.969C1054.95 458.062 1056.67 462.156 1058.31 466.25C1082.9 468.337 1105.81 479.603 1122.47 497.807C1139.14 516.011 1148.34 539.82 1148.25 564.5ZM1082.75 564.5C1082.75 555.814 1079.3 547.484 1073.16 541.342C1067.02 535.2 1058.69 531.75 1050 531.75H1035.02C1028.04 531.757 1021.25 529.538 1015.62 525.414C1010 521.291 1005.83 515.479 1003.74 508.825C984.977 448.947 947.569 396.633 896.975 359.516C846.381 322.399 785.249 302.422 722.5 302.5H591.5C534.299 302.497 478.332 319.138 430.426 350.394C382.519 381.651 344.743 426.171 321.702 478.527C298.662 530.883 291.354 588.812 300.669 645.249C309.984 701.687 335.52 754.195 374.163 796.37C377.118 799.584 379.4 803.356 380.877 807.464L434.464 957.5H486.536L502.174 913.738C504.445 907.379 508.625 901.877 514.144 897.985C519.662 894.094 526.248 892.004 533 892H813.75C820.502 892.004 827.088 894.094 832.606 897.985C838.125 901.877 842.305 907.379 844.576 913.738L860.214 957.5H912.286L986.424 749.988C988.695 743.629 992.875 738.127 998.393 734.235C1003.91 730.344 1010.5 728.254 1017.25 728.25H1050C1058.69 728.25 1067.02 724.8 1073.16 718.658C1079.3 712.516 1082.75 704.186 1082.75 695.5V564.5Z" fill="#2AB410"/>
</svg>
