<svg width="2048" height="2048" viewBox="0 0 2048 2048" fill="none" xmlns="http://www.w3.org/2000/svg">
<rect width="2048" height="2048" rx="448" fill="#32CE13"/>
<path d="M941.82 354.289C1036.83 339.257 1114.88 353.522 1158.92 364.999C1185.75 371.994 1293.1 402.203 1393.59 495.935L1399.71 501.73C1461.95 561.583 1493.71 620.055 1502.28 636.389L1502.28 636.394C1538.26 705.052 1549.4 765.05 1554.75 795.627L1554.77 795.699L1554.9 796.412C1559 819.963 1564.48 852.227 1562.92 894.895C1561.32 938.743 1554.25 972.012 1549.65 992.182C1545.6 1009.96 1541.11 1029.25 1531.08 1053.66L1531.07 1053.66C1528.75 1059.29 1519.84 1080.52 1504.01 1106.12C1495.16 1120.43 1486.83 1131.75 1480.69 1139.64L1480.7 1139.64C1475.58 1146.22 1470.17 1153.38 1462.15 1162.18C1459.86 1164.7 1449.61 1175.87 1433.87 1189.29H1433.86C1431.03 1191.71 1418.51 1202.29 1399.96 1214.77L1396.17 1217.28C1377.19 1229.75 1361.12 1238.04 1352.29 1242.38C1345.82 1245.55 1323.98 1256.03 1293.57 1265.67C1258.66 1276.73 1230.13 1280.98 1216.44 1282.7C1192.95 1285.63 1175 1285.86 1163.68 1286.03H1163.67C1146.87 1286.24 1120.32 1285.76 1088.03 1281.34L1088.02 1281.33C1058.3 1277.24 1033.69 1271.19 1015.98 1266.08C960.656 1250.1 918.515 1227.5 892.931 1211.92C867.987 1196.73 832.019 1171.85 794.986 1134.28C743.245 1081.79 714.202 1029.6 699.807 1000.12V1000.12C675.465 950.298 662.861 903.887 656.192 867.007L654.934 859.764C645.778 804.667 647.227 757.416 650.755 723.376L651.492 716.264L658.495 714.795C697.403 706.64 749.545 698.899 811.289 698.701C920.892 698.342 1005.38 721.935 1047.34 735.76C1078.26 745.933 1128.07 762.674 1186 798.345L1191.63 801.858L1191.64 801.863C1201.9 808.349 1245.98 836.625 1295.13 884.286H1295.13C1332.05 920.102 1355.73 951.269 1369.23 969.184L1372.03 972.933C1378.39 981.518 1383.43 988.83 1387.02 994.063L1388.86 996.793C1397.65 1009.99 1400.39 1017.19 1415.66 1043.72C1417.65 1047.17 1419.43 1050.21 1421.02 1052.91C1430.42 1042.81 1436.55 1032.18 1441.81 1022.79L1441.81 1022.78C1451.98 1004.67 1457.56 987.904 1461.38 973.252C1464.24 962.245 1477 913.423 1469.02 841.437L1468.03 832.832C1465.45 811.234 1460.61 779.098 1447.42 740.378C1418.3 654.924 1369.69 599.684 1350.8 579.705H1350.8C1335.64 563.664 1266.97 493.545 1150.93 458.952C1061.06 432.166 986.155 439.588 956.031 443.84C889.291 453.251 840.063 475.465 817.568 486.837L813.428 488.962C715.513 539.86 662.637 615.163 642.192 648.018C583.733 741.975 577.26 831.46 573.87 888.417C568.448 979.548 585.61 1047.63 600.78 1107.75C622.87 1195.32 653.117 1260.98 688.683 1332.4L704.244 1363.45C719.415 1393.63 749.724 1451.71 793.464 1520.46L801.385 1532.78C812.775 1550.31 834.17 1582.52 862.016 1621.01V1621.01C881.077 1647.37 898.548 1670.28 913.513 1689.35L925.953 1705.2H824.719L821.78 1701.24C818.983 1697.48 816.077 1693.51 813.04 1689.35L803.515 1676.21C780.275 1644.07 768.441 1627.73 766.185 1624.41V1624.4C735.68 1579.71 714.155 1543.3 703.612 1525.23C653.606 1439.51 624.281 1389.26 594.102 1322.91C562.885 1254.3 524.77 1170.58 504.557 1053.75L502.714 1043.03C493.402 988.242 483.161 915.844 495.434 823.933C503.281 765.116 516.687 672.349 582.629 576.465C647.01 482.835 726.934 437.049 762.045 417.424C841.805 372.837 912.319 359.207 937.283 355.026L941.82 354.289Z" fill="white" stroke="white" stroke-width="13.3274" stroke-miterlimit="10"/>
</svg>
